<svg id="logosandtypes_com" xmlns="http://www.w3.org/2000/svg" viewBox="0 0 150 150.2"><path d="M0 .2h150v150H0V.2z" fill="none"/><linearGradient id="a" gradientUnits="userSpaceOnUse" x1="-227.5633" y1="170.132" x2="-227.0054" y2="170.132" gradientTransform="rotate(90 -7245.6367 50454.3047) scale(253.53)"><stop offset="0" stop-color="#00a7ff"/><stop offset="1" stop-color="#1b4dff"/></linearGradient><path d="M75.1 10.3c-35.1 0-63.6 28.5-63.6 63.6s28.5 63.6 63.6 63.6 63.6-28.5 63.6-63.6-28.5-63.6-63.6-63.6zm-11.8 91.8c-7.4.1-14.6-2.5-20.3-7.3-6.8-5.7-11-14-11.6-22.9-.5-8.5 2.4-16.9 8.2-23.1 6.5-7.2 18.2-18.3 18.7-18.8 3.3-2.9 8.3-2.6 11.2.7 2.7 3.1 2.6 7.8-.2 10.7-.1.1-11.7 11.2-17.9 18-2.9 3.1-4.3 7.3-4.1 11.5.3 4.6 2.5 8.9 6.1 11.9 4.8 4.2 14.3 5.1 20.2-.2 3.5-3.2 7.8-7.8 7.9-7.9 3.1-3.1 8.1-3.2 11.2-.1 3 2.9 3.2 7.7.5 10.9-.2.2-4.8 5.2-9 8.9-5.7 5.1-13.3 7.7-20.9 7.7zm47.9-.6c-6.5 7.2-18.2 18.3-18.7 18.8-1.5 1.4-3.4 2.2-5.5 2.2-4.4 0-7.9-3.5-7.9-7.9 0-2.2.9-4.2 2.4-5.7.1-.1 11.7-11.2 17.9-18 2.9-3.1 4.4-7.3 4.1-11.5-.3-4.6-2.5-8.9-6.1-11.9-4.8-4.2-14.3-5.1-20.2.2-3.5 3.2-7.8 7.8-7.9 7.9-3.1 3.1-8.1 3.2-11.2.2-3-2.9-3.2-7.7-.5-10.9.2-.2 4.8-5.3 9-8.9 11.3-10.1 29.7-10.3 41.2-.4 6.8 5.7 11 14 11.6 22.9.5 8.4-2.4 16.7-8.2 23z" fill="url(#a)"/></svg>